HIERARCHY
ROOT Hips
{
    OFFSET 0.000000 0.000000 0.000000
    CHANNELS 6 Xposition Yposition Zposition Zrotation Xrotation Yrotation
    JOINT Spine
    {
        OFFSET -0.000000 8.104110 0.000000
        CHANNELS 3 Zrotation Xrotation Yrotation
        JOINT Spine1
        {
            OFFSET -0.000000 22.417536 0.000000
            CHANNELS 3 Zrotation Xrotation Yrotation
            JOINT Neck
            {
                OFFSET -0.000000 22.325472 2.029588
                CHANNELS 3 Zrotation Xrotation Yrotation
                JOINT Head
                {
                    OFFSET -0.000000 13.836284 -1.976612
                    CHANNELS 3 Zrotation Xrotation Yrotation
                    End Site
                    {
                        OFFSET -0.000000 24.707651 0.000000
                    }
                }
            }
            JOINT LeftShoulder
            {
                OFFSET 3.973640 20.379602 -0.279950
                CHANNELS 3 Zrotation Xrotation Yrotation
                JOINT LeftArm
                {
                    OFFSET 11.493720 0.000000 0.000000
                    CHANNELS 3 Zrotation Xrotation Yrotation
                    JOINT LeftForeArm
                    {
                        OFFSET 31.336695 0.000000 0.000000
                        CHANNELS 3 Zrotation Xrotation Yrotation
                        JOINT LeftHand
                        {
                            OFFSET 29.043781 0.000000 0.000000
                            CHANNELS 3 Zrotation Xrotation Yrotation
                            End Site
                            {
                                OFFSET 14.824592 0.000000 0.000000
                            }
                        }
                    }
                }
            }
            JOINT RightShoulder
            {
                OFFSET -3.921018 20.379602 -0.279950
                CHANNELS 3 Zrotation Xrotation Yrotation
                JOINT RightArm
                {
                    OFFSET -11.493720 0.000000 0.000000
                    CHANNELS 3 Zrotation Xrotation Yrotation
                    JOINT RightForeArm
                    {
                        OFFSET -31.336695 0.000000 0.000000
                        CHANNELS 3 Zrotation Xrotation Yrotation
                        JOINT RightHand
                        {
                            OFFSET -29.043781 0.000000 0.000000
                            CHANNELS 3 Zrotation Xrotation Yrotation
                            End Site
                            {
                                OFFSET -14.824592 0.000000 0.000000
                            }
                        }
                    }
                }
            }
        }
    }
    JOINT LeftUpLeg
    {
        OFFSET 9.883060 0.000000 0.000000
        CHANNELS 3 Zrotation Xrotation Yrotation
        JOINT LeftLeg
        {
            OFFSET -0.000000 -43.587502 0.000000
            CHANNELS 3 Zrotation Xrotation Yrotation
            JOINT LeftFoot
            {
                OFFSET -0.000000 -41.501083 0.000000
                CHANNELS 3 Zrotation Xrotation Yrotation
                JOINT LeftToeBase
                {
                    OFFSET -0.000000 -6.423989 14.824592
                    CHANNELS 3 Zrotation Xrotation Yrotation
                    End Site
                    {
                        OFFSET -0.000000 0.000000 3.953224
                    }
                }
            }
        }
    }
    JOINT RightUpLeg
    {
        OFFSET -9.883060 0.000000 0.000000
        CHANNELS 3 Zrotation Xrotation Yrotation
        JOINT RightLeg
        {
            OFFSET -0.000000 -43.587502 0.000000
            CHANNELS 3 Zrotation Xrotation Yrotation
            JOINT RightFoot
            {
                OFFSET -0.000000 -41.501083 0.000000
                CHANNELS 3 Zrotation Xrotation Yrotation
                JOINT RightToeBase
                {
                    OFFSET -0.000000 -6.423989 14.824592
                    CHANNELS 3 Zrotation Xrotation Yrotation
                    End Site
                    {
                        OFFSET -0.000000 0.000000 3.953224
                    }
                }
            }
        }
    }
}
MOTION
Frames:    5
Frame Time:    0.008333
-12.768501    89.511581    15.079305    2.239303    -10.313377    151.002945    0.728568    -11.619395    1.417816    1.035858    12.386567    1.231299    1.345484    12.703849    16.634762    -10.107690    -5.581106    15.388587    1.419679    4.313759    -6.282501    -18.667107    40.064125    -33.156448    18.348143    -20.226166    -59.556343    17.548435    -10.605275    -4.055601    -3.082242    10.831795    2.885607    28.210693    29.135195    29.001835    -24.428301    -35.743500    81.946541    17.262583    -15.627412    4.542532    11.609975    -34.299301    10.452370    -2.332733    41.798458    -1.361433    -4.403554    -17.996624    4.424481    0.000000    0.000000    0.000000    -11.431954    11.932707    -12.609608    5.660331    21.191551    0.245087    9.297841    0.363632    -20.401312    0.000000    0.000000    0.000000    
-12.783366    89.791985    14.673844    2.308668    -10.225273    151.274765    0.639625    -11.724277    1.388881    1.223007    12.713277    1.186978    1.170985    12.545176    16.460913    -9.874333    -5.516534    15.259601    1.299281    4.556533    -6.157485    -19.244457    41.032677    -32.866756    18.312313    -19.985861    -59.139587    17.988752    -10.461327    -3.945505    -3.063423    10.789524    2.794786    28.963366    29.881882    28.409401    -24.514887    -35.501404    81.075943    17.321169    -15.562491    4.719992    11.123835    -33.592159    10.147172    -2.049854    40.942032    -1.664528    -4.469537    -17.805334    4.482622    0.000000    0.000000    0.000000    -11.225081    11.453707    -12.424685    5.898514    21.520988    0.118518    9.200629    -0.107535    -20.183310    0.000000    0.000000    0.000000    
-12.776777    90.029205    14.259966    2.494464    -10.099304    151.630417    0.720914    -11.709970    1.291036    1.261058    12.938883    1.074144    1.121304    12.480083    16.270761    -9.792096    -5.445857    15.082892    1.210818    4.810589    -5.958435    -20.031416    41.590935    -32.382553    18.243792    -19.298124    -58.802723    17.862068    -9.862630    -4.036331    -2.935379    10.942427    2.573240    29.542791    30.266001    28.298967    -24.396662    -35.003860    80.201576    17.867361    -15.366403    4.828980    10.718610    -32.812824    9.763976    -1.785512    40.139767    -2.035319    -4.516731    -17.821812    4.520712    0.000000    0.000000    0.000000    -10.904289    11.145855    -12.396258    6.084126    22.014828    0.453214    9.033690    -1.128976    -20.280140    0.000000    0.000000    0.000000    
-12.761394    90.291191    13.925928    2.704896    -10.032917    152.003891    0.801534    -11.603467    1.176129    1.314687    13.019004    0.944718    1.187228    12.330173    16.150612    -9.788018    -5.201140    14.974501    1.132433    4.963353    -5.698101    -20.656372    42.269596    -32.062759    18.227854    -18.645824    -58.246571    17.504627    -9.350846    -4.400538    -2.716918    11.278122    2.191119    29.762486    30.704746    28.448046    -24.117989    -34.550301    79.472290    17.132484    -15.435487    4.399767    10.424557    -32.138821    9.492340    -1.496800    39.323189    -2.206498    -4.759676    -17.635450    4.323866    0.000000    0.000000    0.000000    -10.458010    10.709432    -12.261494    6.251459    22.367867    0.303457    8.664177    -1.816771    -19.918222    0.000000    0.000000    0.000000    
-12.785538    90.535042    13.577157    2.752293    -9.946574    152.436798    0.698843    -11.590446    1.052699    1.464173    13.163901    0.812867    1.203734    12.278143    15.986194    -9.856573    -5.144807    14.793534    1.024835    5.080959    -5.537663    -21.422592    42.955635    -31.637365    18.163864    -18.044840    -57.814491    17.379515    -8.842263    -4.368767    -2.673140    11.240410    2.156341    30.720831    30.991018    27.827492    -23.908701    -33.943745    78.798058    17.003242    -15.162513    4.332102    9.937375    -31.538488    9.021152    -1.405888    38.503010    -2.357639    -4.838054    -17.409485    4.417213    0.000000    0.000000    0.000000    -10.211155    10.209457    -12.501405    6.409321    22.713232    0.319695    8.563024    -2.528533    -19.758501    0.000000    0.000000    0.000000    
